<?xml version="1.0" encoding="UTF-8" standalone="no"?>
<!-- Created with Inkscape (http://www.inkscape.org/) -->

<svg
   xmlns:dc="http://purl.org/dc/elements/1.1/"
   xmlns:cc="http://creativecommons.org/ns#"
   xmlns:rdf="http://www.w3.org/1999/02/22-rdf-syntax-ns#"
   xmlns:svg="http://www.w3.org/2000/svg"
   xmlns="http://www.w3.org/2000/svg"
   xmlns:sodipodi="http://sodipodi.sourceforge.net/DTD/sodipodi-0.dtd"
   xmlns:inkscape="http://www.inkscape.org/namespaces/inkscape"
   width="1411.4989"
   height="598.26752"
   id="svg2"
   version="1.1"
   inkscape:version="0.48.5 r10040"
   sodipodi:docname="bunsenlabs-text-flame.svg">
  <defs
     id="defs4" />
  <sodipodi:namedview
     id="base"
     pagecolor="#bebebe"
     bordercolor="#666666"
     borderopacity="1.0"
     inkscape:pageopacity="0"
     inkscape:pageshadow="2"
     inkscape:zoom="0.69687447"
     inkscape:cx="556.12416"
     inkscape:cy="235.51176"
     inkscape:document-units="px"
     inkscape:current-layer="layer2"
     showgrid="true"
     borderlayer="false"
     showborder="true"
     fit-margin-top="20"
     fit-margin-left="20"
     fit-margin-right="20"
     fit-margin-bottom="20"
     inkscape:showpageshadow="false"
     inkscape:window-width="1919"
     inkscape:window-height="1029"
     inkscape:window-x="1"
     inkscape:window-y="1"
     inkscape:window-maximized="1"
     inkscape:snap-global="false">
    <inkscape:grid
       type="xygrid"
       id="grid3009"
       empspacing="5"
       visible="true"
       enabled="true"
       snapvisiblegridlinesonly="true"
       originx="-102.69531px"
       originy="-767.87369px" />
  </sodipodi:namedview>
  <metadata
     id="metadata7">
    <rdf:RDF>
      <cc:Work
         rdf:about="">
        <dc:format>image/svg+xml</dc:format>
        <dc:type
           rdf:resource="http://purl.org/dc/dcmitype/StillImage" />
        <dc:title></dc:title>
      </cc:Work>
    </rdf:RDF>
  </metadata>
  <g
     inkscape:label="text"
     inkscape:groupmode="layer"
     id="layer1"
     transform="translate(-102.69531,313.77902)"
     style="display:inline" />
  <g
     inkscape:groupmode="layer"
     id="layer2"
     inkscape:label="flame"
     style="display:inline">
    <path
       sodipodi:nodetypes="ccccccc"
       inkscape:connector-curvature="0"
       id="path3774"
       d="m 662.99503,254.35556 c -29.53426,-60.59677 -19.23447,-147.83803 52.83631,-192.917271 -2.83395,8.291845 -1.90534,22.118963 2.12275,32.444053 11.04784,25.482828 32.99354,47.117748 41.02922,88.230308 11.123,57.54142 -9.94564,112.50468 -47.50439,155.77217 18.82241,-61.22112 28.34163,-135.89081 -16.74867,-172.57259 -31.55836,28.30603 -32.75744,54.66155 -31.73522,89.04333 z"
       style="fill:#333333;stroke:#333333;stroke-width:3.15324903;stroke-linecap:round;stroke-linejoin:round;stroke-miterlimit:4;stroke-opacity:1;stroke-dasharray:none;display:inline" />
    <g
       id="g3030"
       transform="matrix(1.7605203,0,0,1.7605203,1254.2493,322.68301)">
      <g
         style="font-size:144px;font-style:normal;font-variant:normal;font-stretch:normal;text-align:start;line-height:125%;letter-spacing:0px;word-spacing:0px;writing-mode:lr-tb;text-anchor:start;fill:#000000;fill-opacity:1;stroke:none;font-family:Open Sans;-inkscape-font-specification:Open Sans Semi-Light"
         id="text3018" />
      <g
         style="font-size:144px;font-style:normal;font-variant:normal;font-weight:200;font-stretch:normal;text-align:start;line-height:125%;letter-spacing:0px;word-spacing:0px;writing-mode:lr-tb;text-anchor:start;fill:#000000;fill-opacity:1;stroke:none;font-family:Open Sans;-inkscape-font-specification:Open Sans"
         id="text3026">
        <path
           id="path3056"
           style=""
           d="m 64.050049,113.43599 c -6e-5,6.84376 -2.60162,12.11719 -7.804688,15.82031 -5.203172,3.65625 -12.585977,5.48438 -22.148437,5.48438 -10.21877,0 -18.328137,-1.57032 -24.3281252,-4.71094 l 0,-7.52344 c 7.6874862,3.84376 15.7968532,5.76563 24.3281252,5.76563 7.546837,0 13.265581,-1.24218 17.15625,-3.72657 3.937449,-2.53123 5.906197,-5.88279 5.90625,-10.05468 -5.3e-5,-3.84373 -1.570364,-7.0781 -4.710938,-9.70313 -3.093795,-2.62497 -8.203165,-5.203089 -15.328125,-7.734373 -7.64065,-2.765586 -13.007832,-5.132771 -16.101562,-7.101563 -3.093764,-2.015579 -5.437512,-4.265577 -7.03125,-6.75 -1.546884,-2.531197 -2.32032,-5.601506 -2.320313,-9.210937 -7e-6,-5.718685 2.390615,-10.242118 7.171875,-13.570313 4.828106,-3.328048 11.554661,-4.992109 20.179688,-4.992187 8.249956,7.8e-5 16.078074,1.546951 23.484375,4.640625 l -2.601563,6.328125 c -7.500048,-3.09368 -14.460979,-4.640554 -20.882812,-4.640625 -6.234404,7.1e-5 -11.179712,1.03132 -14.835938,3.09375 -3.656266,2.062566 -5.48439,4.921938 -5.484375,8.578125 -1.5e-5,3.984431 1.406234,7.171928 4.21875,9.5625 2.859353,2.390673 8.414035,5.062545 16.664063,8.015625 6.890582,2.484415 11.906202,4.734412 15.046875,6.75 3.140571,1.968783 5.484319,4.218778 7.03125,6.749998 1.59369,2.53128 2.390565,5.50784 2.390625,8.92969 M -36.848389,55.428177 c 10.687445,7.8e-5 18.726499,3.375074 24.117188,10.125 5.4374252,6.703186 8.1561725,16.523489 8.1562498,29.460937 -7.73e-5,12.703146 -2.8594495,22.500016 -8.5781248,29.390626 -5.671938,6.89063 -13.664118,10.33594 -23.976563,10.33594 -5.437539,0 -10.335972,-1.125 -14.695312,-3.375 -4.359401,-2.25 -7.80471,-5.4375 -10.335938,-9.5625 l -0.632812,0 -1.96875,11.53125 -4.359375,0 0,-109.406253 6.960937,0 0,27.492187 c -1.9e-5,4.125078 -0.09377,7.921949 -0.28125,11.390625 l -0.210937,5.976563 0.492187,0 c 2.906228,-4.593681 6.398412,-7.968678 10.476563,-10.125 4.124965,-2.156173 9.070273,-3.234297 14.835937,-3.234375 m -0.140625,6.328125 c -9.000036,7.1e-5 -15.445342,2.578194 -19.335937,7.734375 -3.890647,5.156309 -5.835957,13.664113 -5.835938,25.523437 l 0,1.195313 c -1.9e-5,11.531273 2.015604,19.804703 6.046875,24.820313 4.078095,5.01563 10.406214,7.52344 18.984375,7.52344 8.343697,0 14.624941,-2.90625 18.84375,-8.71875 4.218682,-5.85936 6.328055,-14.17966 6.328125,-24.960941 -7e-5,-22.078064 -8.343811,-33.117116 -25.03125,-33.117187 m -61.945312,71.578128 -1.757814,-12.09375 -0.5625,0 c -3.8438,4.92188 -7.80474,8.41406 -11.88281,10.47656 -4.03129,2.01562 -8.81254,3.02344 -14.34375,3.02344 -7.50002,0 -13.33596,-1.92188 -17.50781,-5.76563 -4.17189,-3.84374 -6.25782,-9.16405 -6.25782,-15.96094 0,-7.45309 3.09374,-13.24215 9.28125,-17.367183 6.23436,-4.124958 15.23435,-6.304644 27,-6.539063 l 14.55469,-0.421875 0,-5.0625 c -6e-5,-7.265568 -1.47662,-12.749937 -4.42969,-16.453125 -2.95317,-3.703055 -7.71098,-5.554615 -14.27343,-5.554687 -7.07816,7.2e-5 -14.41409,1.96882 -22.00782,5.90625 l -2.60156,-6.046875 c 8.3906,-3.937424 16.68747,-5.906172 24.89063,-5.90625 8.39057,7.8e-5 14.64838,2.179763 18.77343,6.539062 4.171817,4.359442 6.257752,11.15631 6.257816,20.390625 l 0,50.835941 -5.132812,0 m -28.125004,-4.92188 c 8.15621,1e-5 14.57808,-2.3203 19.26563,-6.96094 4.73432,-4.68748 7.1015,-11.17966 7.10156,-19.47656 l 0,-7.523436 -13.35937,0.5625 c -10.73441,0.515663 -18.39847,2.203161 -22.99219,5.062496 -4.54689,2.81253 -6.82033,7.21878 -6.82031,13.21875 -2e-5,4.78127 1.45311,8.50783 4.35937,11.17969 2.9531,2.62501 7.10154,3.93751 12.44531,3.9375 m -43.94531,4.92188 -6.96094,0 0,-109.406253 6.96094,0 0,109.406253 m -47.00439,0 0,-49.851566 c -7e-5,-6.281193 -1.42975,-10.968689 -4.28907,-14.0625 -2.85943,-3.093683 -7.33599,-4.640556 -13.42968,-4.640625 -8.06254,6.9e-5 -13.96879,2.179754 -17.71875,6.539063 -3.75003,4.359433 -5.62503,11.554738 -5.625,21.585937 l 0,40.429691 -11.67188,0 0,-77.062503 9.49219,0 1.89844,10.546875 0.5625,0 c 2.3906,-3.796805 5.74215,-6.726489 10.05468,-8.789063 4.31247,-2.109297 9.11715,-3.163984 14.41407,-3.164062 9.28119,7.8e-5 16.26556,2.250076 20.95312,6.75 4.68743,4.453192 7.03118,11.601622 7.03125,21.445312 l 0,50.273441 -11.67187,0 m -100.89844,1.40625 c -11.39066,0 -20.39065,-3.46875 -27,-10.40625 -6.56251,-6.93749 -9.84376,-16.57029 -9.84375,-28.898441 -1e-5,-12.421824 3.04686,-22.289002 9.14062,-29.601562 6.14061,-7.312425 14.36716,-10.968672 24.67969,-10.96875 9.6562,7.8e-5 17.29682,3.187575 22.92188,9.5625 5.62493,6.328187 8.43742,14.695367 8.4375,25.101562 l 0,7.382813 -53.08594,0 c 0.23435,9.046898 2.50779,15.914078 6.82031,20.601558 4.35935,4.68752 10.47653,7.03126 18.35156,7.03125 8.29683,1e-5 16.49994,-1.73436 24.60938,-5.20312 l 0,10.40625 c -4.12507,1.78125 -8.03913,3.04687 -11.74219,3.79687 -3.6563,0.79688 -8.08599,1.19532 -13.28906,1.19532 m -3.16406,-70.101566 c -6.18754,6.9e-5 -11.13285,2.015692 -14.83594,6.046875 -3.65627,4.031309 -5.81252,9.609428 -6.46875,16.734375 l 40.28906,0 c -6e-5,-7.359321 -1.64068,-12.984316 -4.92187,-16.875 -3.28131,-3.937433 -7.9688,-5.906181 -14.0625,-5.90625 m -48.30469,47.671876 c -6e-5,7.17189 -2.67194,12.70313 -8.01563,16.59375 -5.34379,3.89062 -12.84379,5.83594 -22.5,5.83594 -10.21877,0 -18.18751,-1.61719 -23.90625,-4.85157 l 0,-10.82812 c 3.70312,1.87501 7.66405,3.35157 11.88282,4.42969 4.2656,1.07813 8.36716,1.61719 12.30468,1.61718 6.09372,1e-5 10.78121,-0.96092 14.0625,-2.88281 3.28121,-1.96874 4.92183,-4.94529 4.92188,-8.92969 -5e-5,-2.99997 -1.31255,-5.55466 -3.9375,-7.66406 -2.57817,-2.15622 -7.64066,-4.68747 -15.1875,-7.593748 -7.1719,-2.671837 -12.28127,-4.992147 -15.32813,-6.960938 -3.00001,-2.01558 -5.25001,-4.289016 -6.75,-6.820312 -1.45313,-2.531199 -2.17969,-5.554633 -2.17968,-9.070313 -1e-5,-6.281185 2.55467,-11.226493 7.66406,-14.835937 5.10935,-3.656173 12.11716,-5.484297 21.02344,-5.484375 8.29683,7.8e-5 16.40619,1.687577 24.32812,5.0625 l -4.14844,9.492187 c -7.73442,-3.187433 -14.74222,-4.781181 -21.02343,-4.78125 -5.53128,6.9e-5 -9.70315,0.867256 -12.51563,2.601563 -2.81252,1.734439 -4.21877,4.125062 -4.21875,7.171875 -2e-5,2.062557 0.51561,3.820367 1.54688,5.273437 1.0781,1.453178 2.78904,2.835989 5.13281,4.148438 2.34372,1.312548 6.84372,3.210984 13.5,5.695312 9.14058,3.328166 15.30463,6.679725 18.49219,10.054688 3.23431,3.375033 4.8515,7.617213 4.85156,12.726563 m -85.28906,21.02344 0,-49.851566 c -7e-5,-6.281193 -1.42975,-10.968689 -4.28907,-14.0625 -2.85943,-3.093683 -7.33599,-4.640556 -13.42968,-4.640625 -8.06254,6.9e-5 -13.96879,2.179754 -17.71875,6.539063 -3.75003,4.359433 -5.62503,11.554738 -5.625,21.585937 l 0,40.429691 -11.67188,0 0,-77.062503 9.49219,0 1.89844,10.546875 0.5625,0 c 2.3906,-3.796805 5.74215,-6.726489 10.05468,-8.789063 4.31247,-2.109297 9.11715,-3.163984 14.41407,-3.164062 9.28119,7.8e-5 16.26556,2.250076 20.95312,6.75 4.68743,4.453192 7.03118,11.601622 7.03125,21.445312 l 0,50.273441 -11.67187,0 m -130.07813,-77.062503 0,49.992183 c -2e-5,6.28128 1.42966,10.96877 4.28906,14.0625 2.85935,3.09376 7.33591,4.64064 13.42969,4.64063 8.06245,1e-5 13.94526,-2.20312 17.64844,-6.60938 3.74994,-4.40623 5.62493,-11.60153 5.625,-21.585933 l 0,-40.5 11.67187,0 0,77.062503 -9.63281,0 -1.6875,-10.33594 -0.63281,0 c -2.39069,3.79688 -5.71881,6.70313 -9.98438,8.71875 -4.2188,2.01562 -9.04692,3.02344 -14.48437,3.02344 -9.37503,0 -16.40627,-2.22656 -21.09375,-6.67969 -4.64064,-4.45312 -6.96095,-11.57811 -6.96094,-21.375 l 0,-50.414063 11.8125,0 m -63.42187,-1.265625 c 10.12494,7.8e-5 17.97649,3.468825 23.55468,10.40625 5.62493,6.890686 8.43742,16.664114 8.4375,29.320312 -8e-5,12.656276 -2.83601,22.500016 -8.50781,29.531246 -5.62506,6.98438 -13.45318,10.47657 -23.48437,10.47657 -5.01567,0 -9.60942,-0.91407 -13.78125,-2.74219 -4.12503,-1.875 -7.59378,-4.73437 -10.40625,-8.57813 l -0.84375,0 -2.46094,9.91407 -8.36719,0 0,-109.406253 11.67188,0 0,26.578125 c -3e-5,5.953202 -0.18753,11.296946 -0.5625,16.03125 l 0.5625,0 c 5.43747,-7.687426 13.49996,-11.531172 24.1875,-11.53125 m -1.6875,9.773437 c -7.96879,6.9e-5 -13.71097,2.296942 -17.22657,6.890625 -3.51565,4.546932 -5.27346,12.234425 -5.27343,23.0625 -3e-5,10.828156 1.80466,18.585956 5.41406,23.273436 3.60934,4.64064 9.3984,6.96095 17.36719,6.96094 7.17182,1e-5 12.51556,-2.60155 16.03125,-7.80469 3.51556,-5.24998 5.27337,-12.77341 5.27343,-22.570311 -6e-5,-10.031201 -1.75787,-17.507756 -5.27343,-22.429687 -3.51569,-4.921809 -8.95318,-7.382744 -16.3125,-7.382813" />
      </g>
    </g>
  </g>
</svg>
