<?xml version="1.0" encoding="UTF-8" standalone="no"?>
<!-- Created with Inkscape (http://www.inkscape.org/) -->

<svg
   xmlns:dc="http://purl.org/dc/elements/1.1/"
   xmlns:cc="http://creativecommons.org/ns#"
   xmlns:rdf="http://www.w3.org/1999/02/22-rdf-syntax-ns#"
   xmlns:svg="http://www.w3.org/2000/svg"
   xmlns="http://www.w3.org/2000/svg"
   xmlns:sodipodi="http://sodipodi.sourceforge.net/DTD/sodipodi-0.dtd"
   xmlns:inkscape="http://www.inkscape.org/namespaces/inkscape"
   width="659.03125"
   height="466.85718"
   id="svg2"
   version="1.1"
   inkscape:version="0.48.5 r10040"
   sodipodi:docname="hydrogen.svg">
  <defs
     id="defs4" />
  <sodipodi:namedview
     id="base"
     pagecolor="#bebebe"
     bordercolor="#666666"
     borderopacity="1.0"
     inkscape:pageopacity="0"
     inkscape:pageshadow="2"
     inkscape:zoom="0.7"
     inkscape:cx="378.97917"
     inkscape:cy="313.09405"
     inkscape:document-units="px"
     inkscape:current-layer="layer1"
     showgrid="true"
     borderlayer="false"
     showborder="true"
     fit-margin-top="20"
     fit-margin-left="20"
     fit-margin-right="20"
     fit-margin-bottom="20"
     inkscape:showpageshadow="false"
     inkscape:window-width="1919"
     inkscape:window-height="1029"
     inkscape:window-x="1"
     inkscape:window-y="1"
     inkscape:window-maximized="1">
    <inkscape:grid
       type="xygrid"
       id="grid3009"
       empspacing="5"
       visible="true"
       enabled="true"
       snapvisiblegridlinesonly="true"
       originx="-312.375px"
       originy="-222.54908px" />
  </sodipodi:namedview>
  <metadata
     id="metadata7">
    <rdf:RDF>
      <cc:Work
         rdf:about="">
        <dc:format>image/svg+xml</dc:format>
        <dc:type
           rdf:resource="http://purl.org/dc/dcmitype/StillImage" />
        <dc:title></dc:title>
      </cc:Work>
    </rdf:RDF>
  </metadata>
  <g
     inkscape:label="Layer 1"
     inkscape:groupmode="layer"
     id="layer1"
     transform="translate(-312.375,-362.95593)">
    <g
       style="font-size:144px;font-style:normal;font-variant:normal;font-weight:200;font-stretch:normal;text-align:start;line-height:125%;letter-spacing:0px;word-spacing:0px;writing-mode:lr-tb;text-anchor:start;fill:#000000;fill-opacity:1;stroke:none;font-family:Open Sans;-inkscape-font-specification:Open Sans"
       id="text3095">
      <path
         id="path3140"
         style=""
         d="m 917.23437,775.21936 0,-49.57031 c -6e-5,-7.68744 -1.61725,-13.26556 -4.85156,-16.73438 -3.23443,-3.51555 -8.25005,-5.27336 -15.04687,-5.27343 -9.14066,7e-5 -15.84378,2.32038 -20.10938,6.96093 -4.21877,4.59381 -6.32814,12.07037 -6.32812,22.42969 l 0,42.1875 -6.96094,0 0,-76.42969 5.90625,0 1.33594,10.47657 0.42187,0 c 4.96873,-7.96868 13.80466,-11.95305 26.50781,-11.95313 17.34369,8e-5 26.01556,9.30476 26.01563,27.91406 l 0,49.99219 -6.89063,0 m -101.46093,1.40625 c -11.10941,0 -19.78128,-3.42187 -26.01563,-10.26562 -6.18751,-6.84374 -9.28126,-16.42967 -9.28125,-28.75782 -10e-6,-12.18745 2.99999,-21.93744 9,-29.25 5.99998,-7.3593 14.08591,-11.03898 24.25781,-11.03906 8.99995,8e-5 16.10151,3.1407 21.30469,9.42188 5.20306,6.28131 7.80462,14.81255 7.80469,25.59375 l 0,5.625 -55.05469,0 c 0.0937,10.50002 2.53123,18.51564 7.3125,24.04687 4.8281,5.53126 11.71872,8.29688 20.67188,8.29688 4.35932,0 8.17963,-0.30469 11.46093,-0.91407 3.32807,-0.60937 7.52338,-1.92186 12.58594,-3.9375 l 0,6.32813 c -4.31256,1.875 -8.29693,3.14062 -11.95312,3.79687 -3.6563,0.70313 -7.68755,1.05469 -12.09375,1.05469 m -2.03907,-73.125 c -7.3594,7e-5 -13.26565,2.43757 -17.71875,7.3125 -4.45314,4.82818 -7.0547,11.81255 -7.80468,20.95313 l 47.25,0 c -7e-5,-8.85933 -1.92194,-15.77338 -5.76563,-20.74219 -3.8438,-5.01556 -9.16411,-7.52337 -15.96094,-7.52344 m -44.57812,-4.71094 0,4.85157 -15.82031,0.98437 c 4.21869,5.25007 6.32806,11.01568 6.32812,17.29688 -6e-5,7.35942 -2.461,13.33597 -7.38281,17.92968 -4.87505,4.54691 -11.43754,6.82034 -19.6875,6.82032 -3.46878,2e-5 -5.90628,-0.1406 -7.3125,-0.42188 -2.76565,1.45315 -4.87502,3.16409 -6.32813,5.13281 -1.45314,1.96877 -2.1797,4.05471 -2.17968,6.25782 -2e-5,2.43751 0.91404,4.21876 2.74218,5.34375 1.87498,1.12501 4.99216,1.68751 9.35157,1.6875 l 13.35937,0 c 8.29682,10e-6 14.64838,1.6875 19.05469,5.0625 4.40618,3.32812 6.6093,8.27343 6.60937,14.83593 -7e-5,8.06249 -3.28131,14.27342 -9.84375,18.63282 -6.51567,4.40621 -15.82035,6.60934 -27.91406,6.60937 -9.6094,-3e-5 -17.06251,-1.85159 -22.35937,-5.55469 -5.25001,-3.70315 -7.87501,-8.85939 -7.875,-15.46875 -1e-5,-5.25001 1.61718,-9.60938 4.85156,-13.07812 3.28124,-3.46875 7.71092,-5.83593 13.28906,-7.10156 -2.29689,-0.98437 -4.14845,-2.36718 -5.55469,-4.14844 -1.35938,-1.82811 -2.03907,-3.91405 -2.03906,-6.25781 -10e-6,-5.10936 3.2578,-9.60935 9.77344,-13.5 -4.45314,-1.8281 -7.92189,-4.68747 -10.40625,-8.57813 -2.48439,-3.93746 -3.72657,-8.43745 -3.72656,-13.5 -1e-5,-7.64056 2.41405,-13.75775 7.24218,-18.35156 4.87498,-4.64055 11.43748,-6.96086 19.6875,-6.96094 5.01559,8e-5 8.90621,0.49227 11.67188,1.47656 l 24.46875,0 m -61.875,89.36719 c -10e-6,10.49998 7.80467,15.74997 23.41406,15.75 20.06245,-3e-5 30.09369,-6.39846 30.09375,-19.19531 -6e-5,-4.59376 -1.57037,-7.92188 -4.71094,-9.98438 -3.14068,-2.06249 -8.22661,-3.09374 -15.25781,-3.09375 l -12.51562,0 c -14.01565,10e-6 -21.02345,5.50781 -21.02344,16.52344 m 5.83594,-65.53125 c -2e-5,5.9063 1.78123,10.50004 5.34375,13.78125 3.60935,3.23441 8.41403,4.8516 14.41406,4.85156 6.37496,4e-5 11.24995,-1.61715 14.625,-4.85156 3.42182,-3.23433 5.13276,-7.92183 5.13281,-14.0625 -5e-5,-6.51557 -1.75786,-11.39056 -5.27344,-14.625 -3.46879,-3.28118 -8.34379,-4.9218 -14.625,-4.92187 -6.09377,7e-5 -10.89846,1.75788 -14.41406,5.27343 -3.46877,3.46882 -5.20314,8.32037 -5.20312,14.55469 m -24.75,14.27344 c -8e-5,12.46877 -3.02351,22.21876 -9.07032,29.25 -6.04693,6.98437 -14.39067,10.47656 -25.03125,10.47656 -6.70316,0 -12.6094,-1.61719 -17.71875,-4.85156 -5.10939,-3.23437 -9.02345,-7.87499 -11.74218,-13.92188 -2.71876,-6.04685 -4.07814,-13.03122 -4.07813,-20.95312 -10e-6,-12.4687 3.02343,-22.17182 9.07031,-29.10938 6.04686,-6.9843 14.34372,-10.47648 24.89063,-10.47656 10.49995,8e-5 18.7265,3.53914 24.67969,10.61719 5.99992,7.03131 8.99992,16.68755 9,28.96875 m -60.32813,0 c -10e-6,10.50003 2.29686,18.70314 6.89063,24.60937 4.6406,5.85939 11.17965,8.78907 19.61718,8.78907 8.43745,0 14.95307,-2.92968 19.54688,-8.78907 4.64056,-5.90623 6.96087,-14.10934 6.96094,-24.60937 -7e-5,-10.54683 -2.34382,-18.72651 -7.03125,-24.53906 -4.64068,-5.81244 -11.17974,-8.71868 -19.61719,-8.71875 -8.43753,7e-5 -14.95315,2.90631 -19.54688,8.71875 -4.54689,5.76568 -6.82032,13.94536 -6.82031,24.53906 m -28.75781,-39.58594 c 3.23433,8e-5 6.70308,0.3282 10.40625,0.98438 l -1.33594,6.67968 c -3.18755,-0.7968 -6.49223,-1.19524 -9.91406,-1.19531 -6.51566,7e-5 -11.85941,2.76569 -16.03125,8.29688 -4.1719,5.5313 -6.25783,12.51567 -6.25781,20.95312 l 0,42.1875 -6.96094,0 0,-76.42969 5.90625,0 0.70312,13.78125 0.49219,0 c 3.1406,-5.62493 6.49216,-9.56242 10.05469,-11.8125 3.56247,-2.2968 7.87496,-3.44523 12.9375,-3.44531 m -87.89063,0 c 5.53121,8e-5 10.31245,1.00789 14.34375,3.02344 4.0312,2.0157 7.64057,5.461 10.82813,10.33594 l 0.42187,0 c -0.28131,-5.90618 -0.42194,-11.69524 -0.42187,-17.36719 l 0,-27.49219 6.89062,0 0,109.40625 -4.57031,0 -1.75781,-11.67187 -0.5625,0 c -5.81256,8.71875 -14.1563,13.07812 -25.03125,13.07812 -10.54691,0 -18.6094,-3.28125 -24.1875,-9.84375 -5.57814,-6.56248 -8.3672,-16.12498 -8.36719,-28.6875 -1e-5,-13.2187 2.76562,-23.32025 8.29688,-30.30469 5.53123,-6.9843 13.57028,-10.47648 24.11718,-10.47656 m 0,6.32813 c -8.34378,7e-5 -14.62502,2.92975 -18.84375,8.78906 -4.17189,5.85943 -6.25782,14.36723 -6.25781,25.52344 -1e-5,21.65626 8.41404,32.48438 25.24219,32.48437 8.62495,10e-6 14.95307,-2.5078 18.98437,-7.52344 4.03119,-5.0156 6.04681,-13.28903 6.04688,-24.82031 l 0,-1.19531 c -7e-5,-11.81245 -1.99225,-20.29682 -5.97656,-25.45313 -3.93756,-5.20305 -10.33599,-7.80461 -19.19532,-7.80468 m -106.875,-4.85157 7.17188,0 16.17187,42.89063 c 4.92185,13.17189 8.03904,22.0547 9.35157,26.64844 l 0.42187,0 c 1.96872,-6.04687 5.17965,-15.0703 9.63281,-27.07032 l 16.17188,-42.46875 7.17187,0 -34.24218,88.80469 c -2.76566,7.21873 -5.08597,12.09373 -6.96094,14.625 -1.87502,2.53122 -4.07815,4.42966 -6.60938,5.69531 -2.48439,1.26559 -5.50782,1.89841 -9.07031,1.89844 -2.67188,-3e-5 -5.64844,-0.49222 -8.92969,-1.47656 l 0,-6.04688 c 2.71875,0.74998 5.64844,1.12497 8.78907,1.125 2.39061,-3e-5 4.49998,-0.56252 6.32812,-1.6875 1.82811,-1.12502 3.46873,-2.88283 4.92188,-5.27343 1.49998,-2.34377 3.21091,-6.09377 5.13281,-11.25 1.96872,-5.10938 3.23435,-8.43751 3.79687,-9.98438 l -29.25,-76.42969 m -18.84375,76.42969 0,-49.57031 c -6e-5,-7.68744 -1.61725,-13.26556 -4.85156,-16.73438 -3.23443,-3.51555 -8.25005,-5.27336 -15.04687,-5.27343 -9.14066,7e-5 -15.84378,2.32038 -20.10938,6.96093 -4.21877,4.59381 -6.32814,12.07037 -6.32812,22.42969 l 0,42.1875 -6.96094,0 0,-109.40625 6.96094,0 0,34.80469 -0.35157,9.77344 0.49219,0 c 2.85935,-4.59369 6.46873,-7.92181 10.82813,-9.98438 4.35934,-2.06242 9.77339,-3.09367 16.24218,-3.09375 17.34369,8e-5 26.01556,9.30476 26.01563,27.91406 l 0,49.99219 -6.89063,0" />
    </g>
    <g
       style="font-size:144px;font-style:normal;font-variant:normal;font-weight:normal;font-stretch:normal;text-align:start;line-height:125%;letter-spacing:0px;word-spacing:0px;writing-mode:lr-tb;text-anchor:start;fill:#000000;fill-opacity:1;stroke:none;font-family:Open Sans;-inkscape-font-specification:Open Sans"
       id="text3103">
      <path
         id="path3122"
         style=""
         d="m 939.73437,492.36218 0,-49.85156 c -6e-5,-6.28119 -1.42975,-10.96869 -4.28906,-14.0625 -2.85943,-3.09368 -7.33599,-4.64056 -13.42969,-4.64062 -8.06253,6e-5 -13.96878,2.17975 -17.71875,6.53906 -3.75002,4.35943 -5.62502,11.55474 -5.625,21.58594 l 0,40.42968 -11.67187,0 0,-77.0625 9.49219,0 1.89843,10.54688 0.5625,0 c 2.3906,-3.79681 5.74216,-6.72649 10.05469,-8.78906 4.31246,-2.1093 9.11715,-3.16399 14.41406,-3.16407 9.2812,8e-5 16.26556,2.25008 20.95313,6.75 4.68743,4.45319 7.03117,11.60163 7.03125,21.44532 l 0,50.27343 -11.67188,0 m -100.89843,1.40625 c -11.39066,0 -20.39065,-3.46875 -27,-10.40625 -6.56251,-6.93748 -9.84376,-16.57028 -9.84375,-28.89843 -1e-5,-12.42183 3.04686,-22.28901 9.14062,-29.60157 6.1406,-7.31242 14.36716,-10.96867 24.67969,-10.96875 9.6562,8e-5 17.29682,3.18758 22.92187,9.5625 5.62493,6.32819 8.43743,14.69537 8.4375,25.10157 l 0,7.38281 -53.08593,0 c 0.23435,9.0469 2.50779,15.91408 6.82031,20.60156 4.35934,4.68751 10.47653,7.03126 18.35156,7.03125 8.29682,10e-6 16.49994,-1.73436 24.60938,-5.20312 l 0,10.40625 c -4.12507,1.78125 -8.03913,3.04687 -11.74219,3.79687 -3.6563,0.79687 -8.08599,1.19531 -13.28906,1.19531 m -3.16407,-70.10156 c -6.18753,7e-5 -11.13284,2.01569 -14.83593,6.04688 -3.65628,4.0313 -5.81252,9.60942 -6.46875,16.73437 l 40.28906,0 c -6e-5,-7.35932 -1.64068,-12.98432 -4.92188,-16.875 -3.2813,-3.93743 -7.96879,-5.90618 -14.0625,-5.90625 m -45.35156,-8.36719 0,7.38282 -14.27344,1.6875 c 1.31244,1.64069 2.48432,3.79693 3.51563,6.46875 1.03118,2.62505 1.54681,5.60161 1.54687,8.92968 -6e-5,7.54692 -2.57818,13.57035 -7.73437,18.07032 -5.1563,4.50003 -12.23442,6.75002 -21.23438,6.75 -2.2969,2e-5 -4.45315,-0.18748 -6.46875,-0.5625 -4.96877,2.62502 -7.45314,5.92971 -7.45312,9.91406 -2e-5,2.10939 0.86716,3.6797 2.60156,4.71094 1.73435,0.98438 4.71091,1.47657 8.92969,1.47656 l 13.64062,0 c 8.3437,10e-6 14.74213,1.75782 19.19532,5.27344 4.49993,3.51562 6.74992,8.62499 6.75,15.32812 -8e-5,8.53123 -3.42195,15.02341 -10.26563,19.47656 -6.8438,4.49997 -16.82817,6.74997 -29.95312,6.75 -10.07815,-3e-5 -17.85939,-1.87503 -23.34375,-5.625 -5.43751,-3.75002 -8.15626,-9.04689 -8.15625,-15.89062 -1e-5,-4.68751 1.49999,-8.74219 4.5,-12.16406 2.99999,-3.42188 7.21873,-5.74219 12.65625,-6.96094 -1.96877,-0.89062 -3.63283,-2.27343 -4.99219,-4.14844 -1.31251,-1.87499 -1.96876,-4.05467 -1.96875,-6.53906 -10e-6,-2.81248 0.74999,-5.27342 2.25,-7.38281 1.49998,-2.10935 3.86717,-4.14841 7.10156,-6.11719 -3.98439,-1.6406 -7.2422,-4.42966 -9.77344,-8.36719 -2.48438,-3.93746 -3.72657,-8.43745 -3.72656,-13.5 -10e-6,-8.43744 2.53124,-14.92962 7.59375,-19.47656 5.06248,-4.59368 12.23435,-6.89055 21.51563,-6.89063 4.03121,8e-5 7.66401,0.46883 10.89843,1.40625 l 26.64844,0 m -61.45312,90 c -2e-5,4.17186 1.75779,7.33592 5.27343,9.49219 3.51561,2.15623 8.55466,3.23435 15.11719,3.23438 9.79683,-3e-5 17.03901,-1.47659 21.72656,-4.42969 4.73432,-2.90627 7.1015,-6.8672 7.10157,-11.88281 -7e-5,-4.17189 -1.28913,-7.07813 -3.86719,-8.71875 -2.57818,-1.59375 -7.42974,-2.39063 -14.55469,-2.39063 l -13.99219,0 c -5.2969,0 -9.42189,1.26563 -12.375,3.79688 -2.95314,2.53124 -4.4297,6.16405 -4.42968,10.89843 m 6.32812,-65.32031 c -2e-5,5.39067 1.52342,9.46879 4.57031,12.23438 3.04685,2.76566 7.28904,4.14847 12.72657,4.14843 11.39057,4e-5 17.08588,-5.53121 17.08593,-16.59375 -5e-5,-11.57806 -5.76567,-17.36711 -17.29687,-17.36718 -5.48441,7e-5 -9.70315,1.47663 -12.65625,4.42968 -2.95315,2.95319 -4.42971,7.336 -4.42969,13.14844 m -28.33594,13.78125 c -7e-5,12.56253 -3.16413,22.38283 -9.49218,29.46094 -6.32819,7.03125 -15.07037,10.54687 -26.22657,10.54687 -6.89066,0 -13.00784,-1.61718 -18.35156,-4.85156 -5.34377,-3.23437 -9.46876,-7.87499 -12.375,-13.92187 -2.90626,-6.04686 -4.35938,-13.12497 -4.35937,-21.23438 -1e-5,-12.56245 3.14061,-22.33588 9.42187,-29.32031 6.28123,-7.03118 14.99997,-10.5468 26.15625,-10.54688 10.7812,8e-5 19.33588,3.58601 25.66406,10.75782 6.37493,7.17193 9.56243,16.87505 9.5625,29.10937 m -58.71093,0 c -2e-5,9.84378 1.96873,17.34377 5.90625,22.5 3.93747,5.15626 9.72652,7.73438 17.36718,7.73438 7.64058,0 13.42964,-2.55468 17.36719,-7.66407 3.98431,-5.15623 5.9765,-12.67966 5.97656,-22.57031 -6e-5,-9.79683 -1.99225,-17.22651 -5.97656,-22.28906 -3.93755,-5.10931 -9.77349,-7.664 -17.50781,-7.66406 -7.64066,6e-5 -13.40628,2.50787 -17.29688,7.52343 -3.89064,5.01568 -5.83595,12.49224 -5.83593,22.42969 m -31.42969,-39.86719 c 3.42182,8e-5 6.49213,0.28133 9.21094,0.84375 l -1.61719,10.82813 c -3.18755,-0.70306 -6.00005,-1.05462 -8.4375,-1.05469 -6.23442,7e-5 -11.57816,2.53132 -16.03125,7.59375 -4.40628,5.06256 -6.6094,11.36724 -6.60938,18.91406 l 0,41.34375 -11.67187,0 0,-77.0625 9.63281,0 1.33594,14.27344 0.5625,0 c 2.85935,-5.01556 6.30466,-8.88274 10.33594,-11.60156 4.03121,-2.71868 8.46089,-4.07805 13.28906,-4.07813 m -71.01563,68.13282 -0.63281,0 c -5.39068,7.82812 -13.45317,11.74218 -24.1875,11.74218 -10.07815,0 -17.92971,-3.44531 -23.55469,-10.33593 -5.57813,-6.89061 -8.36719,-16.68748 -8.36718,-29.39063 -10e-6,-12.70307 2.81249,-22.57025 8.4375,-29.60156 5.62498,-7.03118 13.45309,-10.5468 23.48437,-10.54688 10.45308,8e-5 18.46869,3.79695 24.04688,11.39063 l 0.91406,0 -0.49219,-5.55469 -0.28125,-5.41406 0,-31.35938 11.67188,0 0,109.40625 -9.49219,0 -1.54688,-10.33593 m -23.34375,1.96875 c 7.96871,0 13.73432,-2.15624 17.29688,-6.46875 3.60931,-4.35936 5.414,-11.36717 5.41406,-21.02344 l 0,-2.46094 c -6e-5,-10.92183 -1.82818,-18.70307 -5.48437,-23.34375 -3.60943,-4.68743 -9.39849,-7.03118 -17.36719,-7.03125 -6.84378,7e-5 -12.09378,2.67194 -15.75,8.01563 -3.6094,5.29693 -5.41408,12.79692 -5.41406,22.5 -2e-5,9.84377 1.80466,17.27345 5.41406,22.28906 3.60935,5.01563 8.90622,7.52344 15.89062,7.52344 m -113.90625,-68.69532 12.51563,0 16.875,43.94532 c 3.70309,10.03127 5.99996,17.27345 6.89062,21.72656 l 0.5625,0 c 0.60934,-2.39061 1.87497,-6.46873 3.79688,-12.23438 1.96871,-5.81247 8.3437,-23.62495 19.125,-53.4375 l 12.51562,0 -33.11718,87.75 c -3.28129,8.67186 -7.12503,14.81248 -11.53125,18.42188 -4.3594,3.65621 -9.72658,5.48434 -16.10157,5.48437 -3.5625,-3e-5 -7.07812,-0.39847 -10.54687,-1.19531 l 0,-9.35156 c 2.57812,0.56247 5.46093,0.84372 8.64844,0.84375 8.0156,-3e-5 13.73435,-4.50002 17.15625,-13.5 l 4.28906,-10.96875 -31.07813,-77.48438 m -23.34375,77.0625 0,-49.85156 c -6e-5,-6.28119 -1.42975,-10.96869 -4.28906,-14.0625 -2.85943,-3.09368 -7.33599,-4.64056 -13.42969,-4.64062 -8.10941,6e-5 -14.03909,2.20319 -17.78906,6.60937 -3.70315,4.40631 -5.55471,11.62505 -5.55469,21.65625 l 0,40.28906 -11.67187,0 0,-109.40625 11.67187,0 0,33.11719 c -2e-5,3.98445 -0.18752,7.28913 -0.5625,9.91406 l 0.70313,0 c 2.29685,-3.70305 5.55466,-6.6093 9.77344,-8.71875 4.26558,-2.15617 9.11714,-3.23429 14.55468,-3.23437 9.42182,8e-5 16.4765,2.25007 21.16407,6.75 4.7343,4.45319 7.10148,11.55475 7.10156,21.30469 l 0,50.27343 -11.67188,0" />
    </g>
  </g>
</svg>
