<?xml version="1.0" encoding="UTF-8" standalone="no"?>
<!-- Created with Inkscape (http://www.inkscape.org/) -->

<svg
   xmlns:dc="http://purl.org/dc/elements/1.1/"
   xmlns:cc="http://creativecommons.org/ns#"
   xmlns:rdf="http://www.w3.org/1999/02/22-rdf-syntax-ns#"
   xmlns:svg="http://www.w3.org/2000/svg"
   xmlns="http://www.w3.org/2000/svg"
   xmlns:sodipodi="http://sodipodi.sourceforge.net/DTD/sodipodi-0.dtd"
   xmlns:inkscape="http://www.inkscape.org/namespaces/inkscape"
   width="1411.4989"
   height="598.26752"
   id="svg2"
   version="1.1"
   inkscape:version="0.48.5 r10040"
   sodipodi:docname="Bunsenlabs-text-flame.svg">
  <defs
     id="defs4" />
  <sodipodi:namedview
     id="base"
     pagecolor="#bebebe"
     bordercolor="#666666"
     borderopacity="1.0"
     inkscape:pageopacity="0"
     inkscape:pageshadow="2"
     inkscape:zoom="0.69687447"
     inkscape:cx="421.23617"
     inkscape:cy="310.13065"
     inkscape:document-units="px"
     inkscape:current-layer="layer2"
     showgrid="true"
     borderlayer="false"
     showborder="true"
     fit-margin-top="20"
     fit-margin-left="20"
     fit-margin-right="20"
     fit-margin-bottom="20"
     inkscape:showpageshadow="false"
     inkscape:window-width="1919"
     inkscape:window-height="1029"
     inkscape:window-x="1"
     inkscape:window-y="1"
     inkscape:window-maximized="1"
     inkscape:snap-global="false">
    <inkscape:grid
       type="xygrid"
       id="grid3009"
       empspacing="5"
       visible="true"
       enabled="true"
       snapvisiblegridlinesonly="true"
       originx="-102.69531px"
       originy="-767.87369px" />
  </sodipodi:namedview>
  <metadata
     id="metadata7">
    <rdf:RDF>
      <cc:Work
         rdf:about="">
        <dc:format>image/svg+xml</dc:format>
        <dc:type
           rdf:resource="http://purl.org/dc/dcmitype/StillImage" />
        <dc:title />
      </cc:Work>
    </rdf:RDF>
  </metadata>
  <g
     inkscape:label="text"
     inkscape:groupmode="layer"
     id="layer1"
     transform="translate(-102.69531,313.77902)"
     style="display:inline">
    <g
       id="g3091">
      <g
         id="flowRoot3000"
         style="font-size:144px;font-style:normal;font-variant:normal;font-weight:normal;font-stretch:normal;text-align:start;line-height:125%;letter-spacing:0px;word-spacing:0px;writing-mode:lr-tb;text-anchor:start;fill:#000000;fill-opacity:1;stroke:none;font-family:Open Sans;-inkscape-font-specification:Open Sans"
         transform="translate(0,-531.75801)" />
      <g
         id="flowRoot3008"
         style="font-size:144px;font-style:normal;font-variant:normal;font-weight:normal;font-stretch:normal;text-align:start;line-height:125%;letter-spacing:0px;word-spacing:0px;writing-mode:lr-tb;text-anchor:start;fill:#000000;fill-opacity:1;stroke:none;font-family:Open Sans;-inkscape-font-specification:Open Sans"
         transform="translate(444.84375,-974.63301)">
        <path
           id="path3074"
           style="font-weight:100;font-family:Open Sans;-inkscape-font-specification:Open Sans Semi-Light"
           d="m 1047.3505,1200.3753 c -10e-5,12.4465 -4.7315,22.0373 -14.1942,28.772 -9.463,6.6495 -22.8899,9.9742 -40.28101,9.9742 -18.58468,0 -33.33303,-2.8558 -44.2451,-8.5676 l 0,-13.6827 c 13.9811,6.9905 28.72944,10.4858 44.2451,10.4858 13.72531,0 24.12591,-2.2591 31.20171,-6.7775 7.161,-4.6034 10.7415,-10.6989 10.7416,-18.2863 -10e-5,-6.9904 -2.856,-12.8728 -8.5676,-17.6468 -5.6267,-4.774 -14.919,-9.4628 -27.877,-14.0664 -13.89594,-5.0296 -23.65713,-9.3348 -29.28364,-12.9154 -5.62656,-3.6657 -9.8891,-7.7578 -12.7876,-12.2761 -2.81329,-4.6034 -4.21993,-10.1873 -4.21991,-16.7519 -2e-5,-10.4003 4.34776,-18.6271 13.04335,-24.68 8.78079,-6.0526 21.01424,-9.0791 36.7004,-9.0792 15.0041,10e-5 29.2409,2.8135 42.7106,8.4399 l -4.7314,11.5088 c -13.6402,-5.6264 -26.2999,-8.4398 -37.9792,-8.4398 -11.33836,0 -20.33231,1.8757 -26.98182,5.6265 -6.64958,3.7512 -9.97436,8.9515 -9.97433,15.6008 -3e-5,7.2466 2.55749,13.0436 7.67257,17.3912 5.20024,4.3479 15.30244,9.2072 30.30658,14.578 12.5318,4.5183 21.6536,8.6103 27.3655,12.2761 5.7117,3.5806 9.9742,7.6724 12.7876,12.2761 2.8984,4.6034 4.3477,10.0169 4.3478,16.2403 M 863.84837,1094.8774 c 19.43707,10e-5 34.05754,6.1382 43.86149,18.4141 9.88895,12.191 14.83348,30.051 14.83362,53.5802 -1.4e-4,23.1029 -5.20043,40.9203 -15.60088,53.4521 -10.31544,12.5318 -24.85067,18.7977 -43.60573,18.7977 -9.88915,0 -18.79784,-2.046 -26.72609,-6.138 -7.92836,-4.092 -14.19428,-9.8889 -18.79778,-17.3912 l -1.15088,0 -3.58053,20.9718 -7.92832,0 0,-198.9752 12.65973,0 0,49.9996 c 0,7.5022 -0.17059,14.4075 -0.5115,20.716 l -0.38364,10.8694 0.89514,0 c 5.28551,-8.3545 11.63667,-14.4926 19.05353,-18.4142 7.502,-3.9214 16.49595,-5.8822 26.98184,-5.8823 m -0.25574,11.5089 c -16.3682,0 -28.09015,4.689 -35.16591,14.0663 -7.07586,9.3778 -10.61372,24.8508 -10.61372,46.4191 l 0,2.1739 c 0,20.9717 3.66575,36.0184 10.99735,45.1402 7.41675,9.1218 18.92558,13.6826 34.52652,13.6826 15.17453,0 26.59811,-5.2854 34.27078,-15.8565 7.67243,-10.6564 11.50872,-25.7883 11.50885,-45.3959 -1.3e-4,-40.153 -15.17473,-60.2297 -45.52387,-60.2297 m -112.6588,130.1778 -3.1969,-21.9948 -1.02301,0 c -6.99064,8.9514 -14.19431,15.3026 -21.61104,19.0536 -7.33163,3.6658 -16.02721,5.4986 -26.08671,5.4986 -13.64015,0 -24.25385,-3.4951 -31.84113,-10.4858 -7.58734,-6.9904 -11.38098,-16.6663 -11.38098,-29.0277 0,-13.5549 5.62654,-24.0834 16.87963,-31.5854 11.33832,-7.5021 27.70643,-11.4663 49.1044,-11.8926 l 26.47035,-0.7671 0,-9.2071 c 0,-13.2138 -2.68551,-23.1882 -8.0562,-29.9231 -5.37087,-6.7346 -14.02382,-10.1021 -25.95882,-10.1022 -12.87292,10e-5 -26.21464,3.5808 -40.02521,10.7416 l -4.73141,-10.9973 c 15.25982,-7.1609 30.34919,-10.7415 45.26812,-10.7415 15.25978,0 26.64074,3.9641 34.14289,11.8923 7.58721,7.9286 11.38098,20.2898 11.38098,37.0842 l 0,92.4543 -9.33496,0 m -51.15042,-8.9514 c 14.83357,0 26.51289,-4.2198 35.03805,-12.6596 8.61022,-8.5251 12.91547,-20.3323 12.91547,-35.4218 l 0,-13.6826 -24.29644,1.023 c -19.52247,0.9377 -33.46095,4.0067 -41.81547,9.2071 -8.26934,5.115 -12.404,13.1287 -12.40397,24.0406 -3e-5,8.6956 2.64275,15.4731 7.92831,20.3323 5.37077,4.774 12.91544,7.161 22.63405,7.161 m -79.92252,8.9514 -12.65973,0 0,-198.9752 12.65973,0 0,198.9752 m -86.64651,0 0,-90.6642 c -1.1e-4,-11.4235 -2.60026,-19.9485 -7.80044,-25.5752 -5.20039,-5.6263 -13.34183,-8.4396 -24.42432,-8.4398 -14.66318,2e-4 -25.40477,3.9644 -32.22477,11.8926 -6.82009,7.9283 -10.23012,21.0143 -10.23008,39.2579 l 0,73.5287 -21.22741,0 0,-140.1521 17.26327,0 3.45264,19.1814 1.023,0 c 4.34774,-6.9051 10.44316,-12.2333 18.28628,-15.9846 7.84299,-3.8361 16.58119,-5.7543 26.21459,-5.7544 16.87954,10e-5 29.58187,4.0922 38.10706,12.2761 8.52495,8.0989 12.78746,21.0998 12.78761,39.0023 l 0,91.4313 -21.22743,0 m -183.5021,2.5574 c -20.71599,0 -37.0841,-6.3084 -49.1044,-18.9255 -11.93512,-12.6171 -17.90267,-30.1361 -17.90265,-52.557 -2e-5,-22.5915 5.54127,-40.5366 16.62388,-53.8359 11.16779,-13.2989 26.12928,-19.9486 44.88449,-19.9487 17.56155,10e-5 31.45741,5.7972 41.68758,17.3911 10.22996,11.509 15.345,26.7262 15.34513,45.6518 l 0,13.427 -96.5464,0 c 0.42621,16.4534 4.56087,28.9427 12.40397,37.4677 7.92825,8.5251 19.05347,12.7875 33.37564,12.7875 15.08928,0 30.00814,-3.1541 44.75663,-9.4627 l 0,18.9257 c -7.50219,3.2394 -14.62062,5.5412 -21.35531,6.9052 -6.64964,1.4493 -14.70584,2.1738 -24.16856,2.1738 m -5.75444,-127.4923 c -11.25315,0 -20.24709,3.666 -26.98183,10.9974 -6.64961,7.3317 -10.57112,17.4765 -11.7646,30.4344 l 73.27297,0 c -1.1e-4,-13.3842 -2.98387,-23.6143 -8.95133,-30.6903 -5.96764,-7.1608 -14.49269,-10.7415 -25.57521,-10.7415 m -87.85082,86.7 c -1.1e-4,13.0433 -4.85941,23.1029 -14.57788,30.1787 -9.71867,7.0758 -23.35876,10.6136 -40.92033,10.6136 -18.58469,0 -33.07729,-2.941 -43.47786,-8.8233 l 0,-19.6929 c 6.7348,3.4101 13.93847,6.0954 21.61105,8.0561 7.75778,1.9609 15.2172,2.9411 22.37831,2.9411 11.08252,0 19.60759,-1.7475 25.57521,-5.2429 5.96745,-3.5804 8.95124,-8.9939 8.95133,-16.2402 -9e-5,-5.4561 -2.38711,-10.1021 -7.16106,-13.9384 -4.68887,-3.9216 -13.89594,-8.5251 -27.62122,-13.8107 -13.0434,-4.8592 -22.33572,-9.079 -27.87699,-12.6597 -5.45606,-3.6657 -9.54809,-7.8003 -12.2761,-12.4039 -2.64278,-4.6035 -3.96416,-10.1023 -3.96416,-16.496 0,-11.4235 4.64615,-20.4174 13.9385,-26.982 9.29228,-6.6494 22.03726,-9.9742 38.23492,-9.9743 15.08931,10e-5 29.83765,3.0692 44.24512,9.207 l -7.54469,17.2633 c -14.06644,-5.7968 -26.81142,-8.6953 -38.23494,-8.6955 -10.05962,2e-4 -17.64694,1.5772 -22.76192,4.7313 -5.11508,3.1545 -7.6726,7.5023 -7.67257,13.0434 -3e-5,3.7513 0.93773,6.9481 2.81327,9.5909 1.96074,2.6427 5.07237,5.1576 9.33496,7.5446 4.26248,2.387 12.44655,5.8398 24.5522,10.3579 16.62379,6.0529 27.83425,12.1483 33.63139,18.2863 5.88219,6.1381 8.82335,13.8533 8.82346,23.1456 m -155.11365,38.2349 0,-90.6642 c -1.1e-4,-11.4235 -2.600263,-19.9485 -7.800437,-25.5752 -5.200392,-5.6263 -13.341829,-8.4396 -24.424328,-8.4398 -14.663173,2e-4 -25.404761,3.9644 -32.224761,11.8926 -6.820092,7.9283 -10.23012,21.0143 -10.230084,39.2579 l 0,73.5287 -21.2274128,0 0,-140.1521 17.2632698,0 3.452639,19.1814 1.023009,0 c 4.347739,-6.9051 10.443159,-12.2333 18.286278,-15.9846 7.842991,-3.8361 16.581191,-5.7543 26.214583,-5.7544 16.879546,10e-5 29.581874,4.0922 38.107064,12.2761 8.52495,8.0989 12.78746,21.0998 12.78761,39.0023 l 0,91.4313 -21.22743,0 m -236.57067,-140.1521 0,90.9199 c -3e-5,11.4236 2.6001,19.9487 7.80044,25.5752 5.20025,5.6264 13.34168,8.4397 24.42433,8.4397 14.663025,0 25.361982,-4.0067 32.096887,-12.0204 6.819946,-8.0134 10.229955,-21.0994 10.230083,-39.2578 l 0,-73.6566 21.227413,0 0,140.1521 -17.519013,0 -3.069025,-18.7977 -1.150879,0 c -4.347904,6.9052 -10.400694,12.1908 -18.158407,15.8565 -7.672653,3.6658 -16.453465,5.4986 -26.342459,5.4986 -17.05019,0 -29.83779,-4.0493 -38.36281,-12.148 -8.43984,-8.099 -12.65975,-21.0569 -12.65973,-38.8743 l 0,-91.6872 21.48317,0 m -186.57114,-46.8027 52.8128,0 c 24.80785,2e-4 42.75311,3.7086 53.83583,11.1252 11.08244,7.417 16.62373,19.1389 16.62387,35.1659 -1.4e-4,11.0828 -3.1118,20.2472 -9.33495,27.4933 -6.13817,7.1613 -15.13212,11.8075 -26.98184,13.9386 l 0,1.2787 c 28.38834,4.8594 42.58257,19.7784 42.58271,44.7567 -1.4e-4,16.7091 -5.6693,29.7525 -17.00751,39.13 -11.25321,9.3777 -27.02457,14.0664 -47.31412,14.0664 l -65.21679,0 0,-186.9548 m 21.73894,80.0503 35.80529,0 c 15.34501,2e-4 26.38497,-2.3868 33.11988,-7.161 6.73468,-4.8592 10.10208,-13.0005 10.10221,-24.4242 -1.3e-4,-10.4858 -3.75114,-18.0304 -11.25309,-22.6342 -7.50217,-4.6886 -19.43725,-7.0328 -35.80529,-7.033 l -31.969,0 0,61.2524 m 0,18.4142 0,69.9483 39.00218,0 c 15.08928,0 26.42761,-2.8986 34.01502,-8.6957 7.67244,-5.8821 11.50873,-15.0466 11.50885,-27.4933 -1.2e-4,-11.5939 -3.92166,-20.119 -11.76459,-25.5752 -7.75793,-5.4559 -19.60777,-8.1839 -35.54955,-8.1841 l -37.21191,0"
           inkscape:connector-curvature="0"
           sodipodi:nodetypes="ccsccsccccccsccccscscccccccccssccccccscccccccsscscscccccscscccsccccscsccccscccsccccccccsccsscccccccccsccccscccscccscccccccccccsscccsccccccsccccccccsccccsccsscccccccccscccssscscccccccscscccscccccccsccccccccccccsccccc" />
      </g>
    </g>
  </g>
  <g
     inkscape:groupmode="layer"
     id="layer2"
     inkscape:label="flame"
     style="display:inline">
    <path
       sodipodi:nodetypes="ccccccc"
       inkscape:connector-curvature="0"
       id="path3774"
       d="m 662.99503,254.35556 c -29.53426,-60.59677 -19.23447,-147.83803 52.83631,-192.917271 -2.83395,8.291845 -1.90534,22.118963 2.12275,32.444053 11.04784,25.482828 32.99354,47.117748 41.02922,88.230308 11.123,57.54142 -9.94564,112.50468 -47.50439,155.77217 18.82241,-61.22112 28.34163,-135.89081 -16.74867,-172.57259 -31.55836,28.30603 -32.75744,54.66155 -31.73522,89.04333 z"
       style="fill:#333333;stroke:#333333;stroke-width:3.15324903;stroke-linecap:round;stroke-linejoin:round;stroke-miterlimit:4;stroke-opacity:1;stroke-dasharray:none;display:inline" />
  </g>
</svg>
